<svg xmlns="http://www.w3.org/2000/svg" viewBox="0 0 280 260">
<rect width="280" height="260" fill="#102600" rx="10"></rect>
<rect x="110" y="10" width="10" height="10" fill="#B5FF1C"></rect><rect x="120" y="10" width="10" height="10" fill="#B5FF1C"></rect><rect x="130" y="10" width="10" height="10" fill="#B5FF1C"></rect><rect x="140" y="10" width="10" height="10" fill="#B5FF1C"></rect><rect x="150" y="10" width="10" height="10" fill="#B5FF1C"></rect><rect x="160" y="10" width="10" height="10" fill="#B5FF1C"></rect><rect x="100" y="20" width="10" height="10" fill="#B5FF1C"></rect><rect x="110" y="20" width="10" height="10" fill="#B5FF1C"></rect><rect x="120" y="20" width="10" height="10" fill="#B5FF1C"></rect><rect x="130" y="20" width="10" height="10" fill="#B5FF1C"></rect><rect x="140" y="20" width="10" height="10" fill="#B5FF1C"></rect><rect x="150" y="20" width="10" height="10" fill="#B5FF1C"></rect><rect x="160" y="20" width="10" height="10" fill="#B5FF1C"></rect><rect x="170" y="20" width="10" height="10" fill="#B5FF1C"></rect><rect x="100" y="30" width="10" height="10" fill="#B5FF1C"></rect><rect x="110" y="30" width="10" height="10" fill="#B5FF1C"></rect><rect x="160" y="30" width="10" height="10" fill="#B5FF1C"></rect><rect x="170" y="30" width="10" height="10" fill="#B5FF1C"></rect><rect x="100" y="40" width="10" height="10" fill="#B5FF1C"></rect><rect x="110" y="40" width="10" height="10" fill="#B5FF1C"></rect><rect x="160" y="40" width="10" height="10" fill="#B5FF1C"></rect><rect x="170" y="40" width="10" height="10" fill="#B5FF1C"></rect><rect x="30" y="50" width="10" height="10" fill="#B5FF1C"></rect><rect x="40" y="50" width="10" height="10" fill="#B5FF1C"></rect><rect x="50" y="50" width="10" height="10" fill="#B5FF1C"></rect><rect x="60" y="50" width="10" height="10" fill="#B5FF1C"></rect><rect x="70" y="50" width="10" height="10" fill="#B5FF1C"></rect><rect x="80" y="50" width="10" height="10" fill="#B5FF1C"></rect><rect x="90" y="50" width="10" height="10" fill="#B5FF1C"></rect><rect x="100" y="50" width="10" height="10" fill="#B5FF1C"></rect><rect x="110" y="50" width="10" height="10" fill="#B5FF1C"></rect><rect x="120" y="50" width="10" height="10" fill="#B5FF1C"></rect><rect x="130" y="50" width="10" height="10" fill="#B5FF1C"></rect><rect x="140" y="50" width="10" height="10" fill="#B5FF1C"></rect><rect x="150" y="50" width="10" height="10" fill="#B5FF1C"></rect><rect x="160" y="50" width="10" height="10" fill="#B5FF1C"></rect><rect x="170" y="50" width="10" height="10" fill="#B5FF1C"></rect><rect x="180" y="50" width="10" height="10" fill="#B5FF1C"></rect><rect x="190" y="50" width="10" height="10" fill="#B5FF1C"></rect><rect x="200" y="50" width="10" height="10" fill="#B5FF1C"></rect><rect x="210" y="50" width="10" height="10" fill="#B5FF1C"></rect><rect x="220" y="50" width="10" height="10" fill="#B5FF1C"></rect><rect x="230" y="50" width="10" height="10" fill="#B5FF1C"></rect><rect x="240" y="50" width="10" height="10" fill="#B5FF1C"></rect><rect x="20" y="60" width="10" height="10" fill="#B5FF1C"></rect><rect x="30" y="60" width="10" height="10" fill="#B5FF1C"></rect><rect x="40" y="60" width="10" height="10" fill="#B5FF1C"></rect><rect x="50" y="60" width="10" height="10" fill="#B5FF1C"></rect><rect x="60" y="60" width="10" height="10" fill="#B5FF1C"></rect><rect x="70" y="60" width="10" height="10" fill="#B5FF1C"></rect><rect x="80" y="60" width="10" height="10" fill="#B5FF1C"></rect><rect x="90" y="60" width="10" height="10" fill="#B5FF1C"></rect><rect x="100" y="60" width="10" height="10" fill="#B5FF1C"></rect><rect x="110" y="60" width="10" height="10" fill="#B5FF1C"></rect><rect x="120" y="60" width="10" height="10" fill="#B5FF1C"></rect><rect x="130" y="60" width="10" height="10" fill="#B5FF1C"></rect><rect x="140" y="60" width="10" height="10" fill="#B5FF1C"></rect><rect x="150" y="60" width="10" height="10" fill="#B5FF1C"></rect><rect x="160" y="60" width="10" height="10" fill="#B5FF1C"></rect><rect x="170" y="60" width="10" height="10" fill="#B5FF1C"></rect><rect x="180" y="60" width="10" height="10" fill="#B5FF1C"></rect><rect x="190" y="60" width="10" height="10" fill="#B5FF1C"></rect><rect x="200" y="60" width="10" height="10" fill="#B5FF1C"></rect><rect x="210" y="60" width="10" height="10" fill="#B5FF1C"></rect><rect x="220" y="60" width="10" height="10" fill="#B5FF1C"></rect><rect x="230" y="60" width="10" height="10" fill="#B5FF1C"></rect><rect x="240" y="60" width="10" height="10" fill="#B5FF1C"></rect><rect x="250" y="60" width="10" height="10" fill="#B5FF1C"></rect><rect x="10" y="70" width="10" height="10" fill="#B5FF1C"></rect><rect x="20" y="70" width="10" height="10" fill="#B5FF1C"></rect><rect x="30" y="70" width="10" height="10" fill="#B5FF1C"></rect><rect x="240" y="70" width="10" height="10" fill="#B5FF1C"></rect><rect x="250" y="70" width="10" height="10" fill="#B5FF1C"></rect><rect x="260" y="70" width="10" height="10" fill="#B5FF1C"></rect><rect x="10" y="80" width="10" height="10" fill="#B5FF1C"></rect><rect x="20" y="80" width="10" height="10" fill="#B5FF1C"></rect><rect x="250" y="80" width="10" height="10" fill="#B5FF1C"></rect><rect x="260" y="80" width="10" height="10" fill="#B5FF1C"></rect><rect x="10" y="90" width="10" height="10" fill="#B5FF1C"></rect><rect x="20" y="90" width="10" height="10" fill="#B5FF1C"></rect><rect x="250" y="90" width="10" height="10" fill="#B5FF1C"></rect><rect x="260" y="90" width="10" height="10" fill="#B5FF1C"></rect><rect x="10" y="100" width="10" height="10" fill="#B5FF1C"></rect><rect x="20" y="100" width="10" height="10" fill="#B5FF1C"></rect><rect x="70" y="100" width="10" height="10" fill="#B5FF1C"></rect><rect x="80" y="100" width="10" height="10" fill="#B5FF1C"></rect><rect x="250" y="100" width="10" height="10" fill="#B5FF1C"></rect><rect x="260" y="100" width="10" height="10" fill="#B5FF1C"></rect><rect x="10" y="110" width="10" height="10" fill="#B5FF1C"></rect><rect x="20" y="110" width="10" height="10" fill="#B5FF1C"></rect><rect x="90" y="110" width="10" height="10" fill="#B5FF1C"></rect><rect x="100" y="110" width="10" height="10" fill="#B5FF1C"></rect><rect x="250" y="110" width="10" height="10" fill="#B5FF1C"></rect><rect x="260" y="110" width="10" height="10" fill="#B5FF1C"></rect><rect x="10" y="120" width="10" height="10" fill="#B5FF1C"></rect><rect x="20" y="120" width="10" height="10" fill="#B5FF1C"></rect><rect x="110" y="120" width="10" height="10" fill="#B5FF1C"></rect><rect x="120" y="120" width="10" height="10" fill="#B5FF1C"></rect><rect x="250" y="120" width="10" height="10" fill="#B5FF1C"></rect><rect x="260" y="120" width="10" height="10" fill="#B5FF1C"></rect><rect x="10" y="130" width="10" height="10" fill="#B5FF1C"></rect><rect x="20" y="130" width="10" height="10" fill="#B5FF1C"></rect><rect x="90" y="130" width="10" height="10" fill="#B5FF1C"></rect><rect x="100" y="130" width="10" height="10" fill="#B5FF1C"></rect><rect x="150" y="130" width="10" height="10" fill="#00B7FF"></rect><rect x="160" y="130" width="10" height="10" fill="#00B7FF"></rect><rect x="170" y="130" width="10" height="10" fill="#00B7FF"></rect><rect x="180" y="130" width="10" height="10" fill="#00B7FF"></rect><rect x="190" y="130" width="10" height="10" fill="#00B7FF"></rect><rect x="200" y="130" width="10" height="10" fill="#00B7FF"></rect><rect x="250" y="130" width="10" height="10" fill="#B5FF1C"></rect><rect x="260" y="130" width="10" height="10" fill="#B5FF1C"></rect><rect x="10" y="140" width="10" height="10" fill="#B5FF1C"></rect><rect x="20" y="140" width="10" height="10" fill="#B5FF1C"></rect><rect x="70" y="140" width="10" height="10" fill="#B5FF1C"></rect><rect x="80" y="140" width="10" height="10" fill="#B5FF1C"></rect><rect x="150" y="140" width="10" height="10" fill="#00B7FF"></rect><rect x="160" y="140" width="10" height="10" fill="#00B7FF"></rect><rect x="170" y="140" width="10" height="10" fill="#00B7FF"></rect><rect x="180" y="140" width="10" height="10" fill="#00B7FF"></rect><rect x="190" y="140" width="10" height="10" fill="#00B7FF"></rect><rect x="200" y="140" width="10" height="10" fill="#00B7FF"></rect><rect x="250" y="140" width="10" height="10" fill="#B5FF1C"></rect><rect x="260" y="140" width="10" height="10" fill="#B5FF1C"></rect><rect x="10" y="150" width="10" height="10" fill="#B5FF1C"></rect><rect x="20" y="150" width="10" height="10" fill="#B5FF1C"></rect><rect x="250" y="150" width="10" height="10" fill="#B5FF1C"></rect><rect x="260" y="150" width="10" height="10" fill="#B5FF1C"></rect><rect x="10" y="160" width="10" height="10" fill="#B5FF1C"></rect><rect x="20" y="160" width="10" height="10" fill="#B5FF1C"></rect><rect x="250" y="160" width="10" height="10" fill="#B5FF1C"></rect><rect x="260" y="160" width="10" height="10" fill="#B5FF1C"></rect><rect x="10" y="170" width="10" height="10" fill="#B5FF1C"></rect><rect x="20" y="170" width="10" height="10" fill="#B5FF1C"></rect><rect x="90" y="170" width="10" height="10" fill="#B5FF1C"></rect><rect x="180" y="170" width="10" height="10" fill="#B5FF1C"></rect><rect x="250" y="170" width="10" height="10" fill="#B5FF1C"></rect><rect x="260" y="170" width="10" height="10" fill="#B5FF1C"></rect><rect x="10" y="180" width="10" height="10" fill="#B5FF1C"></rect><rect x="20" y="180" width="10" height="10" fill="#B5FF1C"></rect><rect x="90" y="180" width="10" height="10" fill="#B5FF1C"></rect><rect x="180" y="180" width="10" height="10" fill="#B5FF1C"></rect><rect x="250" y="180" width="10" height="10" fill="#B5FF1C"></rect><rect x="260" y="180" width="10" height="10" fill="#B5FF1C"></rect><rect x="10" y="190" width="10" height="10" fill="#B5FF1C"></rect><rect x="20" y="190" width="10" height="10" fill="#B5FF1C"></rect><rect x="90" y="190" width="10" height="10" fill="#B5FF1C"></rect><rect x="100" y="190" width="10" height="10" fill="#B5FF1C"></rect><rect x="110" y="190" width="10" height="10" fill="#B5FF1C"></rect><rect x="120" y="190" width="10" height="10" fill="#B5FF1C"></rect><rect x="130" y="190" width="10" height="10" fill="#B5FF1C"></rect><rect x="140" y="190" width="10" height="10" fill="#B5FF1C"></rect><rect x="150" y="190" width="10" height="10" fill="#B5FF1C"></rect><rect x="160" y="190" width="10" height="10" fill="#B5FF1C"></rect><rect x="170" y="190" width="10" height="10" fill="#B5FF1C"></rect><rect x="180" y="190" width="10" height="10" fill="#B5FF1C"></rect><rect x="250" y="190" width="10" height="10" fill="#B5FF1C"></rect><rect x="260" y="190" width="10" height="10" fill="#B5FF1C"></rect><rect x="10" y="200" width="10" height="10" fill="#B5FF1C"></rect><rect x="20" y="200" width="10" height="10" fill="#B5FF1C"></rect><rect x="250" y="200" width="10" height="10" fill="#B5FF1C"></rect><rect x="260" y="200" width="10" height="10" fill="#B5FF1C"></rect><rect x="10" y="210" width="10" height="10" fill="#B5FF1C"></rect><rect x="20" y="210" width="10" height="10" fill="#B5FF1C"></rect><rect x="250" y="210" width="10" height="10" fill="#B5FF1C"></rect><rect x="260" y="210" width="10" height="10" fill="#B5FF1C"></rect><rect x="10" y="220" width="10" height="10" fill="#B5FF1C"></rect><rect x="20" y="220" width="10" height="10" fill="#B5FF1C"></rect><rect x="30" y="220" width="10" height="10" fill="#B5FF1C"></rect><rect x="240" y="220" width="10" height="10" fill="#B5FF1C"></rect><rect x="250" y="220" width="10" height="10" fill="#B5FF1C"></rect><rect x="260" y="220" width="10" height="10" fill="#B5FF1C"></rect><rect x="20" y="230" width="10" height="10" fill="#B5FF1C"></rect><rect x="30" y="230" width="10" height="10" fill="#B5FF1C"></rect><rect x="40" y="230" width="10" height="10" fill="#B5FF1C"></rect><rect x="50" y="230" width="10" height="10" fill="#B5FF1C"></rect><rect x="60" y="230" width="10" height="10" fill="#B5FF1C"></rect><rect x="70" y="230" width="10" height="10" fill="#B5FF1C"></rect><rect x="80" y="230" width="10" height="10" fill="#B5FF1C"></rect><rect x="90" y="230" width="10" height="10" fill="#B5FF1C"></rect><rect x="100" y="230" width="10" height="10" fill="#B5FF1C"></rect><rect x="110" y="230" width="10" height="10" fill="#B5FF1C"></rect><rect x="120" y="230" width="10" height="10" fill="#B5FF1C"></rect><rect x="130" y="230" width="10" height="10" fill="#B5FF1C"></rect><rect x="140" y="230" width="10" height="10" fill="#B5FF1C"></rect><rect x="150" y="230" width="10" height="10" fill="#B5FF1C"></rect><rect x="160" y="230" width="10" height="10" fill="#B5FF1C"></rect><rect x="170" y="230" width="10" height="10" fill="#B5FF1C"></rect><rect x="180" y="230" width="10" height="10" fill="#B5FF1C"></rect><rect x="190" y="230" width="10" height="10" fill="#B5FF1C"></rect><rect x="200" y="230" width="10" height="10" fill="#B5FF1C"></rect><rect x="210" y="230" width="10" height="10" fill="#B5FF1C"></rect><rect x="220" y="230" width="10" height="10" fill="#B5FF1C"></rect><rect x="230" y="230" width="10" height="10" fill="#B5FF1C"></rect><rect x="240" y="230" width="10" height="10" fill="#B5FF1C"></rect><rect x="250" y="230" width="10" height="10" fill="#B5FF1C"></rect><rect x="30" y="240" width="10" height="10" fill="#B5FF1C"></rect><rect x="40" y="240" width="10" height="10" fill="#B5FF1C"></rect><rect x="50" y="240" width="10" height="10" fill="#B5FF1C"></rect><rect x="60" y="240" width="10" height="10" fill="#B5FF1C"></rect><rect x="70" y="240" width="10" height="10" fill="#B5FF1C"></rect><rect x="80" y="240" width="10" height="10" fill="#B5FF1C"></rect><rect x="90" y="240" width="10" height="10" fill="#B5FF1C"></rect><rect x="100" y="240" width="10" height="10" fill="#B5FF1C"></rect><rect x="110" y="240" width="10" height="10" fill="#B5FF1C"></rect><rect x="120" y="240" width="10" height="10" fill="#B5FF1C"></rect><rect x="130" y="240" width="10" height="10" fill="#B5FF1C"></rect><rect x="140" y="240" width="10" height="10" fill="#B5FF1C"></rect><rect x="150" y="240" width="10" height="10" fill="#B5FF1C"></rect><rect x="160" y="240" width="10" height="10" fill="#B5FF1C"></rect><rect x="170" y="240" width="10" height="10" fill="#B5FF1C"></rect><rect x="180" y="240" width="10" height="10" fill="#B5FF1C"></rect><rect x="190" y="240" width="10" height="10" fill="#B5FF1C"></rect><rect x="200" y="240" width="10" height="10" fill="#B5FF1C"></rect><rect x="210" y="240" width="10" height="10" fill="#B5FF1C"></rect><rect x="220" y="240" width="10" height="10" fill="#B5FF1C"></rect><rect x="230" y="240" width="10" height="10" fill="#B5FF1C"></rect><rect x="240" y="240" width="10" height="10" fill="#B5FF1C"></rect>
</svg>