<svg xmlns="http://www.w3.org/2000/svg" viewBox="0 0 260 240"><style>@keyframes cchblink{0%,49%{opacity:1}50%,100%{opacity:0}}[fill="#00B7FF"]{animation:cchblink 1s steps(1,end) infinite}</style>

<rect x="100" y="0" width="10" height="10" fill="#102600"></rect><rect x="110" y="0" width="10" height="10" fill="#102600"></rect><rect x="120" y="0" width="10" height="10" fill="#102600"></rect><rect x="130" y="0" width="10" height="10" fill="#102600"></rect><rect x="140" y="0" width="10" height="10" fill="#102600"></rect><rect x="150" y="0" width="10" height="10" fill="#102600"></rect><rect x="90" y="10" width="10" height="10" fill="#102600"></rect><rect x="100" y="10" width="10" height="10" fill="#102600"></rect><rect x="110" y="10" width="10" height="10" fill="#102600"></rect><rect x="120" y="10" width="10" height="10" fill="#102600"></rect><rect x="130" y="10" width="10" height="10" fill="#102600"></rect><rect x="140" y="10" width="10" height="10" fill="#102600"></rect><rect x="150" y="10" width="10" height="10" fill="#102600"></rect><rect x="160" y="10" width="10" height="10" fill="#102600"></rect><rect x="90" y="20" width="10" height="10" fill="#102600"></rect><rect x="100" y="20" width="10" height="10" fill="#102600"></rect><rect x="150" y="20" width="10" height="10" fill="#102600"></rect><rect x="160" y="20" width="10" height="10" fill="#102600"></rect><rect x="90" y="30" width="10" height="10" fill="#102600"></rect><rect x="100" y="30" width="10" height="10" fill="#102600"></rect><rect x="150" y="30" width="10" height="10" fill="#102600"></rect><rect x="160" y="30" width="10" height="10" fill="#102600"></rect><rect x="20" y="40" width="10" height="10" fill="#102600"></rect><rect x="30" y="40" width="10" height="10" fill="#102600"></rect><rect x="40" y="40" width="10" height="10" fill="#102600"></rect><rect x="50" y="40" width="10" height="10" fill="#102600"></rect><rect x="60" y="40" width="10" height="10" fill="#102600"></rect><rect x="70" y="40" width="10" height="10" fill="#102600"></rect><rect x="80" y="40" width="10" height="10" fill="#102600"></rect><rect x="90" y="40" width="10" height="10" fill="#102600"></rect><rect x="100" y="40" width="10" height="10" fill="#102600"></rect><rect x="110" y="40" width="10" height="10" fill="#102600"></rect><rect x="120" y="40" width="10" height="10" fill="#102600"></rect><rect x="130" y="40" width="10" height="10" fill="#102600"></rect><rect x="140" y="40" width="10" height="10" fill="#102600"></rect><rect x="150" y="40" width="10" height="10" fill="#102600"></rect><rect x="160" y="40" width="10" height="10" fill="#102600"></rect><rect x="170" y="40" width="10" height="10" fill="#102600"></rect><rect x="180" y="40" width="10" height="10" fill="#102600"></rect><rect x="190" y="40" width="10" height="10" fill="#102600"></rect><rect x="200" y="40" width="10" height="10" fill="#102600"></rect><rect x="210" y="40" width="10" height="10" fill="#102600"></rect><rect x="220" y="40" width="10" height="10" fill="#102600"></rect><rect x="230" y="40" width="10" height="10" fill="#102600"></rect><rect x="10" y="50" width="10" height="10" fill="#102600"></rect><rect x="20" y="50" width="10" height="10" fill="#102600"></rect><rect x="30" y="50" width="10" height="10" fill="#102600"></rect><rect x="40" y="50" width="10" height="10" fill="#102600"></rect><rect x="50" y="50" width="10" height="10" fill="#102600"></rect><rect x="60" y="50" width="10" height="10" fill="#102600"></rect><rect x="70" y="50" width="10" height="10" fill="#102600"></rect><rect x="80" y="50" width="10" height="10" fill="#102600"></rect><rect x="90" y="50" width="10" height="10" fill="#102600"></rect><rect x="100" y="50" width="10" height="10" fill="#102600"></rect><rect x="110" y="50" width="10" height="10" fill="#102600"></rect><rect x="120" y="50" width="10" height="10" fill="#102600"></rect><rect x="130" y="50" width="10" height="10" fill="#102600"></rect><rect x="140" y="50" width="10" height="10" fill="#102600"></rect><rect x="150" y="50" width="10" height="10" fill="#102600"></rect><rect x="160" y="50" width="10" height="10" fill="#102600"></rect><rect x="170" y="50" width="10" height="10" fill="#102600"></rect><rect x="180" y="50" width="10" height="10" fill="#102600"></rect><rect x="190" y="50" width="10" height="10" fill="#102600"></rect><rect x="200" y="50" width="10" height="10" fill="#102600"></rect><rect x="210" y="50" width="10" height="10" fill="#102600"></rect><rect x="220" y="50" width="10" height="10" fill="#102600"></rect><rect x="230" y="50" width="10" height="10" fill="#102600"></rect><rect x="240" y="50" width="10" height="10" fill="#102600"></rect><rect x="0" y="60" width="10" height="10" fill="#102600"></rect><rect x="10" y="60" width="10" height="10" fill="#102600"></rect><rect x="20" y="60" width="10" height="10" fill="#102600"></rect><rect x="230" y="60" width="10" height="10" fill="#102600"></rect><rect x="240" y="60" width="10" height="10" fill="#102600"></rect><rect x="250" y="60" width="10" height="10" fill="#102600"></rect><rect x="0" y="70" width="10" height="10" fill="#102600"></rect><rect x="10" y="70" width="10" height="10" fill="#102600"></rect><rect x="240" y="70" width="10" height="10" fill="#102600"></rect><rect x="250" y="70" width="10" height="10" fill="#102600"></rect><rect x="0" y="80" width="10" height="10" fill="#102600"></rect><rect x="10" y="80" width="10" height="10" fill="#102600"></rect><rect x="240" y="80" width="10" height="10" fill="#102600"></rect><rect x="250" y="80" width="10" height="10" fill="#102600"></rect><rect x="0" y="90" width="10" height="10" fill="#102600"></rect><rect x="10" y="90" width="10" height="10" fill="#102600"></rect><rect x="60" y="90" width="10" height="10" fill="#102600"></rect><rect x="70" y="90" width="10" height="10" fill="#102600"></rect><rect x="240" y="90" width="10" height="10" fill="#102600"></rect><rect x="250" y="90" width="10" height="10" fill="#102600"></rect><rect x="0" y="100" width="10" height="10" fill="#102600"></rect><rect x="10" y="100" width="10" height="10" fill="#102600"></rect><rect x="80" y="100" width="10" height="10" fill="#102600"></rect><rect x="90" y="100" width="10" height="10" fill="#102600"></rect><rect x="240" y="100" width="10" height="10" fill="#102600"></rect><rect x="250" y="100" width="10" height="10" fill="#102600"></rect><rect x="0" y="110" width="10" height="10" fill="#102600"></rect><rect x="10" y="110" width="10" height="10" fill="#102600"></rect><rect x="100" y="110" width="10" height="10" fill="#102600"></rect><rect x="110" y="110" width="10" height="10" fill="#102600"></rect><rect x="240" y="110" width="10" height="10" fill="#102600"></rect><rect x="250" y="110" width="10" height="10" fill="#102600"></rect><rect x="0" y="120" width="10" height="10" fill="#102600"></rect><rect x="10" y="120" width="10" height="10" fill="#102600"></rect><rect x="80" y="120" width="10" height="10" fill="#102600"></rect><rect x="90" y="120" width="10" height="10" fill="#102600"></rect><rect x="140" y="120" width="10" height="10" fill="#00B7FF"></rect><rect x="150" y="120" width="10" height="10" fill="#00B7FF"></rect><rect x="160" y="120" width="10" height="10" fill="#00B7FF"></rect><rect x="170" y="120" width="10" height="10" fill="#00B7FF"></rect><rect x="180" y="120" width="10" height="10" fill="#00B7FF"></rect><rect x="190" y="120" width="10" height="10" fill="#00B7FF"></rect><rect x="240" y="120" width="10" height="10" fill="#102600"></rect><rect x="250" y="120" width="10" height="10" fill="#102600"></rect><rect x="0" y="130" width="10" height="10" fill="#102600"></rect><rect x="10" y="130" width="10" height="10" fill="#102600"></rect><rect x="60" y="130" width="10" height="10" fill="#102600"></rect><rect x="70" y="130" width="10" height="10" fill="#102600"></rect><rect x="140" y="130" width="10" height="10" fill="#00B7FF"></rect><rect x="150" y="130" width="10" height="10" fill="#00B7FF"></rect><rect x="160" y="130" width="10" height="10" fill="#00B7FF"></rect><rect x="170" y="130" width="10" height="10" fill="#00B7FF"></rect><rect x="180" y="130" width="10" height="10" fill="#00B7FF"></rect><rect x="190" y="130" width="10" height="10" fill="#00B7FF"></rect><rect x="240" y="130" width="10" height="10" fill="#102600"></rect><rect x="250" y="130" width="10" height="10" fill="#102600"></rect><rect x="0" y="140" width="10" height="10" fill="#102600"></rect><rect x="10" y="140" width="10" height="10" fill="#102600"></rect><rect x="240" y="140" width="10" height="10" fill="#102600"></rect><rect x="250" y="140" width="10" height="10" fill="#102600"></rect><rect x="0" y="150" width="10" height="10" fill="#102600"></rect><rect x="10" y="150" width="10" height="10" fill="#102600"></rect><rect x="240" y="150" width="10" height="10" fill="#102600"></rect><rect x="250" y="150" width="10" height="10" fill="#102600"></rect><rect x="0" y="160" width="10" height="10" fill="#102600"></rect><rect x="10" y="160" width="10" height="10" fill="#102600"></rect><rect x="80" y="160" width="10" height="10" fill="#102600"></rect><rect x="170" y="160" width="10" height="10" fill="#102600"></rect><rect x="240" y="160" width="10" height="10" fill="#102600"></rect><rect x="250" y="160" width="10" height="10" fill="#102600"></rect><rect x="0" y="170" width="10" height="10" fill="#102600"></rect><rect x="10" y="170" width="10" height="10" fill="#102600"></rect><rect x="80" y="170" width="10" height="10" fill="#102600"></rect><rect x="170" y="170" width="10" height="10" fill="#102600"></rect><rect x="240" y="170" width="10" height="10" fill="#102600"></rect><rect x="250" y="170" width="10" height="10" fill="#102600"></rect><rect x="0" y="180" width="10" height="10" fill="#102600"></rect><rect x="10" y="180" width="10" height="10" fill="#102600"></rect><rect x="80" y="180" width="10" height="10" fill="#102600"></rect><rect x="90" y="180" width="10" height="10" fill="#102600"></rect><rect x="100" y="180" width="10" height="10" fill="#102600"></rect><rect x="110" y="180" width="10" height="10" fill="#102600"></rect><rect x="120" y="180" width="10" height="10" fill="#102600"></rect><rect x="130" y="180" width="10" height="10" fill="#102600"></rect><rect x="140" y="180" width="10" height="10" fill="#102600"></rect><rect x="150" y="180" width="10" height="10" fill="#102600"></rect><rect x="160" y="180" width="10" height="10" fill="#102600"></rect><rect x="170" y="180" width="10" height="10" fill="#102600"></rect><rect x="240" y="180" width="10" height="10" fill="#102600"></rect><rect x="250" y="180" width="10" height="10" fill="#102600"></rect><rect x="0" y="190" width="10" height="10" fill="#102600"></rect><rect x="10" y="190" width="10" height="10" fill="#102600"></rect><rect x="240" y="190" width="10" height="10" fill="#102600"></rect><rect x="250" y="190" width="10" height="10" fill="#102600"></rect><rect x="0" y="200" width="10" height="10" fill="#102600"></rect><rect x="10" y="200" width="10" height="10" fill="#102600"></rect><rect x="240" y="200" width="10" height="10" fill="#102600"></rect><rect x="250" y="200" width="10" height="10" fill="#102600"></rect><rect x="0" y="210" width="10" height="10" fill="#102600"></rect><rect x="10" y="210" width="10" height="10" fill="#102600"></rect><rect x="20" y="210" width="10" height="10" fill="#102600"></rect><rect x="230" y="210" width="10" height="10" fill="#102600"></rect><rect x="240" y="210" width="10" height="10" fill="#102600"></rect><rect x="250" y="210" width="10" height="10" fill="#102600"></rect><rect x="10" y="220" width="10" height="10" fill="#102600"></rect><rect x="20" y="220" width="10" height="10" fill="#102600"></rect><rect x="30" y="220" width="10" height="10" fill="#102600"></rect><rect x="40" y="220" width="10" height="10" fill="#102600"></rect><rect x="50" y="220" width="10" height="10" fill="#102600"></rect><rect x="60" y="220" width="10" height="10" fill="#102600"></rect><rect x="70" y="220" width="10" height="10" fill="#102600"></rect><rect x="80" y="220" width="10" height="10" fill="#102600"></rect><rect x="90" y="220" width="10" height="10" fill="#102600"></rect><rect x="100" y="220" width="10" height="10" fill="#102600"></rect><rect x="110" y="220" width="10" height="10" fill="#102600"></rect><rect x="120" y="220" width="10" height="10" fill="#102600"></rect><rect x="130" y="220" width="10" height="10" fill="#102600"></rect><rect x="140" y="220" width="10" height="10" fill="#102600"></rect><rect x="150" y="220" width="10" height="10" fill="#102600"></rect><rect x="160" y="220" width="10" height="10" fill="#102600"></rect><rect x="170" y="220" width="10" height="10" fill="#102600"></rect><rect x="180" y="220" width="10" height="10" fill="#102600"></rect><rect x="190" y="220" width="10" height="10" fill="#102600"></rect><rect x="200" y="220" width="10" height="10" fill="#102600"></rect><rect x="210" y="220" width="10" height="10" fill="#102600"></rect><rect x="220" y="220" width="10" height="10" fill="#102600"></rect><rect x="230" y="220" width="10" height="10" fill="#102600"></rect><rect x="240" y="220" width="10" height="10" fill="#102600"></rect><rect x="20" y="230" width="10" height="10" fill="#102600"></rect><rect x="30" y="230" width="10" height="10" fill="#102600"></rect><rect x="40" y="230" width="10" height="10" fill="#102600"></rect><rect x="50" y="230" width="10" height="10" fill="#102600"></rect><rect x="60" y="230" width="10" height="10" fill="#102600"></rect><rect x="70" y="230" width="10" height="10" fill="#102600"></rect><rect x="80" y="230" width="10" height="10" fill="#102600"></rect><rect x="90" y="230" width="10" height="10" fill="#102600"></rect><rect x="100" y="230" width="10" height="10" fill="#102600"></rect><rect x="110" y="230" width="10" height="10" fill="#102600"></rect><rect x="120" y="230" width="10" height="10" fill="#102600"></rect><rect x="130" y="230" width="10" height="10" fill="#102600"></rect><rect x="140" y="230" width="10" height="10" fill="#102600"></rect><rect x="150" y="230" width="10" height="10" fill="#102600"></rect><rect x="160" y="230" width="10" height="10" fill="#102600"></rect><rect x="170" y="230" width="10" height="10" fill="#102600"></rect><rect x="180" y="230" width="10" height="10" fill="#102600"></rect><rect x="190" y="230" width="10" height="10" fill="#102600"></rect><rect x="200" y="230" width="10" height="10" fill="#102600"></rect><rect x="210" y="230" width="10" height="10" fill="#102600"></rect><rect x="220" y="230" width="10" height="10" fill="#102600"></rect><rect x="230" y="230" width="10" height="10" fill="#102600"></rect>
</svg>